<?xml version="1.0" standalone="no"?>
<!DOCTYPE svg PUBLIC "-//W3C//DTD SVG 20010904//EN"
 "http://www.w3.org/TR/2001/REC-SVG-20010904/DTD/svg10.dtd">
<svg version="1.0" xmlns="http://www.w3.org/2000/svg"
 width="2048.000000pt" height="2048.000000pt" viewBox="0 0 2048.000000 2048.000000"
 preserveAspectRatio="xMidYMid meet">

<g transform="translate(0.000000,2048.000000) scale(0.100000,-0.100000)"
fill="#000000" stroke="none">
<path d="M8400 13489 c-442 -31 -694 -114 -841 -278 -63 -70 -96 -134 -115
-220 -39 -186 9 -389 137 -581 110 -164 222 -255 372 -302 81 -25 222 -33 322
-18 49 7 289 15 615 20 584 8 625 11 805 71 167 56 303 143 412 264 126 139
157 227 151 419 -3 98 -9 135 -30 194 -70 194 -246 364 -434 419 -53 15 -124
17 -664 19 -333 1 -661 -2 -730 -7z"/>
<path d="M13670 12323 c-25 -2 -108 -12 -185 -23 -205 -29 -491 -62 -1005
-116 -213 -22 -321 -38 -775 -114 -225 -37 -471 -76 -545 -85 -219 -27 -294
-52 -409 -139 -164 -124 -282 -364 -268 -546 20 -252 230 -417 678 -534 118
-31 192 -46 429 -87 30 -5 188 -20 350 -34 162 -14 446 -40 630 -57 293 -28
375 -32 655 -32 277 -1 332 2 405 18 381 83 677 304 821 611 53 114 71 198 71
330 -1 133 -24 234 -82 352 -102 208 -310 386 -510 437 -62 15 -193 25 -260
19z"/>
<path d="M3975 9274 c-16 -2 -79 -9 -140 -15 -357 -35 -774 -142 -1126 -289
-1117 -467 -1989 -1441 -2327 -2600 -130 -446 -185 -957 -152 -1415 74 -1018
499 -1929 1231 -2640 634 -615 1421 -990 2334 -1112 190 -25 763 -25 960 0
1208 156 2252 806 2910 1812 365 558 571 1143 646 1835 7 63 13 234 13 380 0
277 -9 393 -50 650 -139 876 -588 1714 -1238 2312 -168 154 -205 183 -211 166
-86 -247 -244 -640 -347 -863 -39 -82 -72 -158 -75 -168 -4 -12 15 -38 58 -85
409 -433 678 -1007 766 -1633 24 -175 24 -595 -1 -764 -53 -363 -142 -650
-297 -956 -394 -780 -1108 -1346 -1959 -1554 -794 -194 -1651 -43 -2330 410
-185 123 -311 226 -465 380 -504 502 -803 1142 -866 1855 -16 181 -6 504 20
680 50 328 145 624 298 923 344 673 936 1194 1646 1448 734 263 1533 227 2251
-101 38 -17 72 -28 76 -23 23 26 223 524 324 808 55 156 62 182 49 192 -23 18
-254 111 -398 160 -242 82 -535 150 -820 189 -104 15 -703 28 -780 18z"/>
<path d="M15930 9274 c-595 -54 -1053 -180 -1541 -425 -77 -38 -139 -74 -139
-79 0 -8 447 -617 597 -812 l44 -57 57 25 c621 282 1275 352 1922 204 1097
-249 1969 -1113 2232 -2210 52 -218 69 -363 75 -625 6 -265 -7 -427 -52 -650
-180 -898 -769 -1666 -1591 -2078 -1282 -641 -2833 -277 -3700 869 -292 387
-495 861 -564 1314 -6 41 -13 85 -16 98 l-4 22 -540 0 c-465 0 -540 -2 -540
-14 0 -8 7 -68 15 -133 219 -1716 1507 -3111 3198 -3462 302 -63 437 -76 817
-76 438 0 638 23 1005 117 1035 264 1918 921 2477 1843 502 829 686 1836 512
2805 -302 1684 -1652 3008 -3342 3281 -194 31 -317 40 -587 43 -159 2 -310 2
-335 0z"/>
<path d="M13325 8077 c-496 -508 -833 -1090 -1025 -1766 -29 -103 -100 -428
-100 -459 0 -10 113 -12 547 -10 l547 3 26 106 c75 296 205 603 363 854 82
129 238 333 332 432 48 51 85 97 83 103 -7 22 -634 859 -643 860 -5 0 -64 -55
-130 -123z"/>
<path d="M10782 5370 c-193 -51 -235 -95 -281 -292 -11 -46 -25 -97 -31 -113
-29 -75 -81 -306 -91 -408 -7 -61 -21 -161 -33 -222 l-21 -110 -120 -8 c-360
-23 -655 -193 -756 -437 -19 -46 -23 -74 -23 -165 -1 -225 75 -352 244 -407
59 -19 103 -22 445 -31 567 -14 793 -13 905 6 258 44 411 130 480 271 102 208
36 512 -137 636 -90 64 -228 100 -387 100 l-78 0 5 28 c57 325 113 596 133
635 7 16 25 76 40 135 36 144 32 252 -12 315 -61 86 -138 104 -282 67z"/>
</g>
</svg>
